<?xml version="1.0" encoding="UTF-8"?>
<svg xmlns="http://www.w3.org/2000/svg" id="a" width="865.76" height="682.89" viewBox="0 0 865.76 682.89">
  <path d="M253.03,181.33c-31.71,0-57.5-25.79-57.5-57.5s25.79-57.5,57.5-57.5,57.5,25.79,57.5,57.5-25.79,57.5-57.5,57.5Zm0-114c-31.15,0-56.5,25.35-56.5,56.5s25.35,56.5,56.5,56.5,56.5-25.35,56.5-56.5-25.35-56.5-56.5-56.5Z" fill="#002346"></path>
  <g>
    <path d="M771.24,342.39c.14,90.29-46.29,174.27-122.82,222.17-1.6,1-3.21,1.98-4.83,2.94-61.38,36.37-135.08,45.7-203.59,25.77-108-31.52-186.89-131.91-186.89-250.88,0-144.23,115.98-261.17,259.06-261.17s259.07,116.94,259.07,261.17Z" fill="#fff"></path>
    <path d="M511.83,603.97c-24.18,0-48.43-3.38-71.97-10.22-52.94-15.45-100.6-48.42-134.2-92.83-34.7-45.87-53.05-100.69-53.05-158.54,0-69.89,27-135.6,76.02-185.02,49.02-49.43,114.21-76.65,183.54-76.65s134.52,27.22,183.55,76.65c49.02,49.42,76.02,115.14,76.02,185.02h0c.07,44.38-11.25,88.38-32.72,127.22-21.47,38.84-52.71,71.82-90.33,95.37-1.61,1.01-3.24,2-4.84,2.95-40.17,23.8-85.97,36.04-132.02,36.04Zm.34-522.25c-142.57,0-258.56,116.94-258.56,260.67,0,115.38,76.7,218.35,186.53,250.4,23.45,6.82,47.61,10.18,71.69,10.18,45.88,0,91.49-12.19,131.5-35.9,1.6-.95,3.22-1.93,4.82-2.93,76.9-48.13,122.72-131.03,122.59-221.75h0c0-143.73-115.99-260.67-258.57-260.67Z" fill="#002346"></path>
  </g>
  <g>
    <path d="M320.68,123.59c.01,31.33-25.37,56.73-56.7,56.74-31.33,.01-56.73-25.37-56.74-56.7,0-18.33,8.84-35.53,23.76-46.18h0c2.08-1.48,4.27-2.82,6.54-4h0c27.72-14.59,62.02-3.95,76.61,23.77,4.29,8.15,6.53,17.21,6.53,26.42v-.05Z" fill="#4dff00"></path>
    <path d="M263.96,180.83c-15.28,0-29.64-5.95-40.44-16.74-10.81-10.8-16.77-25.17-16.77-40.46,0-18.45,8.95-35.87,23.97-46.59,2.1-1.49,4.32-2.85,6.6-4.04,27.92-14.69,62.59-3.94,77.28,23.98,4.3,8.17,6.58,17.37,6.59,26.6h0v.04h0c-.02,31.54-25.67,57.19-57.2,57.2h-.02Zm-.09-113.4c-8.82,0-17.76,2.08-26.09,6.46-2.24,1.17-4.42,2.5-6.48,3.96-14.75,10.54-23.56,27.65-23.55,45.77,0,15.02,5.86,29.13,16.48,39.75,10.62,10.61,24.73,16.45,39.74,16.45h.02c30.98-.01,56.19-25.22,56.2-56.2,0-9.09-2.24-18.14-6.47-26.18-10.05-19.1-29.62-30.03-49.84-30.03Z" fill="#002346"></path>
  </g>
  <g>
    <path d="M265.36,127.09l-31.2-60.22c14.44-7.25,31.1-8.76,46.61-4.2l-15.41,64.42Z" fill="#454545"></path>
    <path d="M265.53,128.51l-32.05-61.86,.45-.23c14.61-7.34,31.29-8.84,46.98-4.23l.46,.13-15.83,66.19Zm-30.7-61.42l30.35,58.58,14.99-62.65c-15.14-4.33-31.2-2.88-45.33,4.07Z" fill="#002346"></path>
  </g>
  <g>
    <path d="M648.42,564.56c-62.24,38.75-138.02,49.19-208.42,28.71l15.81-53.05,18.9-15.4,123.93,3.5,49.78,36.24Z" fill="#454545"></path>
    <path d="M511.96,604.01c-24.19,0-48.46-3.39-72.1-10.26l-.48-.14,16-53.68,.12-.1,19.04-15.52h.19s124.08,3.51,124.08,3.51l.13,.09,50.38,36.68-.63,.39c-41.37,25.75-88.86,39.03-136.72,39.03Zm-71.34-11.08c69.79,20.15,145.13,9.81,206.9-28.4l-49.05-35.71-123.59-3.49-18.64,15.19-15.62,52.42Z" fill="#002346"></path>
  </g>
  <g>
    <path d="M672.16,189.4l-4.9,39.21c-41.31,16.81-51.73-11.28-51.73-11.28l3.42-23.72,33.61-17.51,19.6,13.3Z" fill="#f2b3c1"></path>
    <path d="M643.38,234.48c-5.1,0-9.75-.92-13.92-2.75-10.77-4.74-14.25-13.84-14.39-14.22l-.04-.12,.02-.12,3.46-23.97,.22-.12,33.87-17.64,20.09,13.63-4.97,39.79-.27,.11c-8.86,3.61-16.91,5.41-24.06,5.41Zm-27.35-17.21c.43,1.05,4.08,9.27,13.84,13.56,9.71,4.26,22.14,3.4,36.93-2.57l4.83-38.62-19.11-12.97-33.13,17.26-3.37,23.34Z" fill="#002346"></path>
  </g>
  <g>
    <path d="M739.38,357.45s-9.47,78.89-44.59,170.16c-13.99,14.06-29.55,26.48-46.37,37-1.6,1-3.21,1.98-4.83,2.94-35.24,1.16-104.59-.5-161.87-25.91l2.1-146.42,16.8-52.51s-14.7,8.4-46.91,18.91l-53.91-50.4,12.6-12.6,92.42-51.11s11.41-8.35,30.91-13.63c0,0,20.78-6.88,60.53-14.29,5.14-.96,10.6-1.92,16.39-2.89,8.68-1.45,13.3,28.71,54.61,11.9l9.8,10.51s37.81,26.6,53.92,49c.02,.02,16.1,24.52,8.4,69.34Z" fill="#4dff00"></path>
    <path d="M627.26,568.31c-38.14,0-96.36-4.31-145.74-26.22l-.3-.13v-.33s2.11-146.49,2.11-146.49l.02-.07,16.42-51.33c-3.99,2.11-18.86,9.53-45.9,18.35l-.28,.09-.22-.2-54.29-50.75,13.08-13.05,92.42-51.11c.06-.05,11.66-8.43,31.02-13.67,.18-.06,21.24-6.97,60.57-14.3,5.13-.96,10.65-1.93,16.4-2.89,2.83-.46,5.16,1.99,8.12,5.11,7,7.38,17.59,18.53,46.38,6.82l.32-.13,10,10.72c1.48,1.04,38.26,27.21,54,49.09,.13,.12,16.17,24.95,8.49,69.71-.17,1.41-10.02,80.35-44.62,170.27l-.11,.17c-14,14.07-29.63,26.54-46.46,37.07-1.61,1.01-3.24,2-4.84,2.95l-.11,.07h-.13c-4.88,.17-10.37,.27-16.34,.27Zm-145.04-27c56.82,25.11,125.32,26.9,161.22,25.74,1.56-.93,3.14-1.89,4.71-2.87,16.73-10.47,32.28-22.87,46.21-36.85,34.67-90.13,44.43-169.15,44.52-169.94v-.03c7.65-44.52-8.16-68.73-8.32-68.97-15.87-22.07-53.42-48.61-53.79-48.87l-.08-.07-9.57-10.26c-29.19,11.76-40.44-.1-47.16-7.19-2.86-3.02-4.94-5.19-7.23-4.81-5.74,.96-11.25,1.93-16.38,2.89-39.26,7.32-60.26,14.21-60.46,14.27-19.2,5.2-30.66,13.48-30.77,13.56l-92.41,51.11-12.18,12.19,53.32,49.84c31.59-10.33,46.39-18.69,46.54-18.78l1.12-.64-17.17,53.66-2.09,146.01Z" fill="#002346"></path>
  </g>
  <g>
    <path d="M677.06,239.12c-15.4,14-48.68,7.32-48.68,7.32-23.47-2.49-32.12-26.84-32.12-26.84,5.14-.96,10.6-1.92,16.39-2.89,8.68-1.45,13.3,28.71,54.61,11.9l9.8,10.51Z" fill="#454545"></path>
    <path d="M646.31,248.57c-9.61,0-17.37-1.51-18.03-1.64-23.46-2.49-32.4-26.92-32.49-27.16l-.2-.55,.58-.11c5.15-.96,10.67-1.93,16.4-2.89,2.83-.47,5.16,1.99,8.12,5.11,7,7.38,17.59,18.54,46.38,6.82l.32-.13,10.38,11.13-.37,.34c-8.03,7.3-20.65,9.08-31.09,9.08Zm-49.36-28.59c1.46,3.6,10.56,23.74,31.49,25.96,.37,.07,32.71,6.37,47.91-6.86l-9.22-9.88c-29.19,11.76-40.44-.09-47.16-7.19-2.86-3.02-4.94-5.19-7.23-4.81-5.51,.92-10.81,1.85-15.79,2.78Z" fill="#002346"></path>
  </g>
  <g>
    <polygon points="310.17 401.56 542.63 622.81 632.95 532.49 399.8 311.23 451.61 257.14 222.65 225.81 256.66 456.75 310.17 401.56" fill="#454545"></polygon>
    <path d="M542.64,623.51l-.35-.34-232.1-220.91-53.87,55.56-.15-1-34.11-231.6,.66,.09,229.93,31.46-52.14,54.44,233.16,221.27-.36,.36-90.67,90.67Zm-232.48-222.65l.36,.34,232.11,220.91,89.61-89.61-233.14-221.25,51.48-53.74-227.33-31.11,33.77,229.28,53.15-54.82Z" fill="#002346"></path>
  </g>
  <g>
    <polygon points="130.67 515.04 226.66 606.41 263.96 569.11 167.68 477.74 189.07 455.4 94.52 442.46 108.57 537.83 130.67 515.04" fill="#454545"></polygon>
    <path d="M226.67,607.11l-.35-.34-95.63-91.03-22.46,23.16-14.29-97.03,.66,.09,95.52,13.07-21.72,22.69,96.29,91.38-38.01,38.01Zm-96.01-92.77l96,91.38,36.59-36.59-96.27-91.36,21.06-21.99-92.92-12.72,13.8,93.71,21.74-22.42Z" fill="#002346"></path>
  </g>
  <g>
    <path d="M285,228.61l5.16,6.44,83.73,11.45-41.28-51.49s-30.84,27.3-47.61,33.6Z" fill="#4dff00"></path>
    <path d="M375.06,247.16l-85.17-11.65-5.72-7.13,.65-.24c16.49-6.2,47.15-33.23,47.45-33.51l.39-.35,42.39,52.88Zm-84.64-12.58l82.29,11.25-40.17-50.1c-3.61,3.15-30.98,26.82-46.73,33.1l4.61,5.75Z" fill="#002346"></path>
  </g>
  <g>
    <path d="M264,180.3s5.65,16.64,24.18,30.38l34-25.37s-8.47-16.91-5.67-33c0,0,3.35-21.26-2.43-25.27-1.26-.85-2.95-.66-4,.43-1.88,1.85-4.86,6.69-5,18.87,0,3.56-1.36,7-2.6,10.33-2.11,5.69-5.78,13.51-10.69,16.36-.27,.2-.55,.38-.84,.53-8.52,3.81-17.64,6.09-26.95,6.74Z" fill="#f2b3c1"></path>
    <path d="M288.18,211.29l-.29-.22c-18.44-13.67-24.3-30.45-24.35-30.62l-.21-.6,.64-.04c9.28-.65,18.29-2.9,26.78-6.7,.24-.13,.5-.29,.75-.47,4.79-2.78,8.36-10.31,10.52-16.14l.2-.53c1.17-3.12,2.37-6.35,2.37-9.63,.14-12.46,3.29-17.39,5.15-19.22,1.21-1.26,3.16-1.47,4.62-.49,5.97,4.14,2.78,24.87,2.64,25.75-2.74,15.76,5.54,32.54,5.62,32.7l.18,.37-.33,.25-34.29,25.59Zm-23.49-30.55c1.21,3.07,7.49,17.34,23.49,29.32l33.38-24.91c-1.21-2.59-8.1-18.18-5.54-32.93,.03-.2,3.24-20.99-2.23-24.78-1.06-.71-2.48-.56-3.37,.37-1.76,1.73-4.72,6.43-4.86,18.54,0,3.45-1.24,6.77-2.43,9.97l-.2,.53c-2.22,5.98-5.91,13.71-10.9,16.61-.23,.18-.54,.37-.86,.54-8.42,3.77-17.32,6.03-26.49,6.75Z" fill="#002346"></path>
  </g>
  <path d="M303.14,234.72c-.2,0-.39-.12-.47-.32-.1-.26,.03-.55,.29-.65,12.42-4.82,38.59-26.98,38.86-27.21,.21-.18,.53-.15,.71,.06,.18,.21,.15,.53-.06,.7-1.08,.92-26.57,22.49-39.14,27.38-.06,.02-.12,.03-.18,.03Z" fill="#002346"></path>
  <g>
    <rect x="606.82" y="96.28" width="69.03" height="111.17" rx="34.51" ry="34.51" transform="translate(212.81 -348.88) rotate(36.12)" fill="#f2b3c1"></rect>
    <path d="M628.87,203.87c-7.16,0-14.38-2.18-20.59-6.72h0c-7.55-5.51-12.51-13.64-13.95-22.87-1.44-9.24,.8-18.49,6.31-26.04l24.84-34.04c11.38-15.59,33.32-19.02,48.91-7.64,15.59,11.38,19.02,33.32,7.64,48.91l-24.84,34.04c-6.85,9.38-17.51,14.36-28.32,14.36Zm24.93-103.04c-10.51,0-20.87,4.84-27.53,13.95l-24.84,34.04c-5.36,7.34-7.54,16.33-6.13,25.31,1.4,8.98,6.22,16.87,13.56,22.23h0c15.15,11.06,36.48,7.73,47.54-7.43l24.84-34.04c11.06-15.15,7.73-36.48-7.43-47.54-6.04-4.41-13.06-6.53-20.01-6.53Z" fill="#002346"></path>
  </g>
  <g>
    <path d="M662.36,134.79s-55.63-31.5-5.58-59.09c1.98-1.09,4.45-.6,5.87,1.16l42.42,53s3.5-2.8,4.2-11.2c0,0,4.9,9.8-1.4,17.5,0,0,7.7,5.6,6.3,9.8h-7s-11.23,28.71-35,43.41c0,0-28-6.3-21-22.4,0,.03-7.01-14.67,11.19-32.18Z" fill="#002346"></path>
    <path d="M672.26,189.9l-.2-.04c-.68-.15-16.7-3.85-21.3-12.92-1.57-3.08-1.61-6.44-.13-9.96-.72-1.7-5.86-15.6,10.92-32.09-3.99-2.37-26.24-16.36-26.14-33.55,.06-9.6,7.17-18.38,21.14-26.08,2.2-1.21,4.93-.67,6.5,1.28l42.07,52.57c.88-.97,3.12-4.04,3.66-10.5l.15-1.78,.8,1.59c.05,.1,4.8,9.84-1.14,17.63,1.64,1.28,7.38,6.1,6.07,10.05l-.11,.34h-7.02c-1.33,3.2-12.78,29.55-35.07,43.33l-.17,.11Zm-20.3-23.5l-.33,.76c-1.44,3.32-1.44,6.45,.02,9.32,4.13,8.13,18.57,11.89,20.44,12.35,23.24-14.48,34.51-42.77,34.62-43.06l.12-.32h6.96c.75-3.78-6.14-8.84-6.21-8.9l-.43-.31,.33-.41c4.44-5.42,3.09-12.01,2.05-15.14-1.04,6.98-4.02,9.43-4.15,9.54l-.39,.31-.31-.39-42.42-53c-1.27-1.57-3.47-2.01-5.24-1.04-13.63,7.52-20.57,16-20.63,25.21-.1,17.9,25.95,32.86,26.21,33.01l.58,.33-.48,.46c-16.35,15.73-12.05,29.18-11.22,31.29l.47-.04Z" fill="#002346"></path>
  </g>
  <g>
    <ellipse cx="652.94" cy="162.59" rx="12.92" ry="9.59" transform="translate(212.22 671.05) rotate(-63.07)" fill="#f2b3c1"></ellipse>
    <path d="M650.45,175.35c-1.76,0-3.39-.54-4.76-1.6-4.41-3.39-4.76-11.15-.79-17.3h0c2.28-3.54,5.54-5.91,8.95-6.5,2.37-.42,4.57,.09,6.34,1.46,4.41,3.39,4.76,11.15,.79,17.3-2.28,3.54-5.54,5.91-8.95,6.5-.54,.09-1.06,.14-1.58,.14Zm-4.79-18.41h0c-3.72,5.77-3.46,12.99,.58,16.09,1.57,1.21,3.52,1.65,5.64,1.28,3.11-.54,6.23-2.82,8.34-6.09,3.72-5.77,3.46-12.99-.58-16.09-1.57-1.21-3.52-1.65-5.64-1.28-3.11,.54-6.23,2.82-8.34,6.09Z" fill="#002346"></path>
  </g>
  <g>
    <path d="M497.12,474.37l-11.9,4.2,16.51,55.32,12.55-3.31s-6.66-32.36-17.16-56.21Z" fill="#fff"></path>
    <path d="M501.39,534.5l-.14-.46-16.65-55.78,12.79-4.51,.19,.42c10.4,23.63,17.12,55.99,17.19,56.31l.1,.46-13.48,3.56Zm-15.55-55.61l16.24,54.4,11.62-3.07c-.86-4.02-7.27-33.28-16.84-55.22l-11.01,3.89Z" fill="#002346"></path>
  </g>
  <g>
    <path d="M485.22,478.57l-28.66-21.35c-1.03-.77-2.48-.64-3.36,.3-6.66,7,10.31,25.23,10.31,25.23,4.06,4.95,.86,7.88-1.93,9.33-1.38,.7-2.87,1.15-4.4,1.33-9.48,1.2-37.08,6.84-37.08,6.84-25.21,5.6-23.1,9.1-23.1,9.1-1.4,8.4,28,3.5,28,3.5-1.4,19.64,14.71,17.37,14.71,17.37-2.1,9.6,7.7,11.4,7.7,11.4,1.4,15.4,53.21-11.4,53.21-11.4l-15.4-51.65Zm-47.22,41.65c-1.81,.45-3.72-.2-4.87-1.67l-5.6-5.22,21.21,.27c-3.74,2.8-6.99,5.67-10.74,6.62Z" fill="#f2b3c1"></path>
    <path d="M454.74,546.87c-2.08,0-3.85-.32-5.17-1.04-1.49-.81-2.36-2.09-2.61-3.81-1.13-.28-4.63-1.35-6.63-4.36-1.27-1.91-1.69-4.23-1.23-6.9-1.78,.11-6.67,.05-10.36-3.39-3.18-2.97-4.62-7.66-4.27-13.94-3.72,.58-22.59,3.25-27.02-1.17-.79-.79-1.11-1.75-.96-2.87-.04-.18-.06-.46,.1-.82,.78-1.82,5.47-4.82,23.4-8.8,.28-.06,27.73-5.66,37.12-6.85,1.48-.17,2.91-.6,4.24-1.28,1.4-.72,3.14-1.97,3.51-3.78,.29-1.42-.29-3.04-1.74-4.8-.69-.73-17.19-18.63-10.29-25.88,1.05-1.12,2.77-1.28,4.01-.36l28.79,21.45,.05,.16,15.52,52.04-.36,.19c-1.45,.75-31.54,16.22-46.1,16.22Zm-14.4-17.24l-.15,.69c-.58,2.67-.26,4.96,.96,6.8,2.13,3.21,6.31,4.01,6.35,4.01l.37,.07,.03,.37c.14,1.57,.84,2.68,2.15,3.4,9.55,5.24,45.95-12.95,49.99-15l-15.24-51.1-28.53-21.25c-.83-.62-2-.52-2.71,.24-6.27,6.59,10.14,24.38,10.31,24.56,1.66,2.03,2.32,3.92,1.96,5.64-.36,1.73-1.75,3.27-4.03,4.46-1.44,.73-2.97,1.2-4.57,1.38-9.35,1.18-36.76,6.78-37.04,6.83-23.15,5.14-22.76,8.39-22.75,8.42l.09,.16-.06,.12c-.14,.85,.08,1.55,.66,2.13,4.46,4.46,26.55,.84,26.77,.8l.62-.1-.04,.62c-.45,6.28,.87,10.91,3.92,13.76,4.15,3.88,10.17,3.09,10.23,3.08l.7-.1Zm-3.49-8.78c-1.58,0-3.11-.72-4.11-2l-6.48-6.03,23.93,.3-1.16,.87c-.61,.45-1.2,.91-1.78,1.36-3.03,2.33-5.89,4.53-9.13,5.35h0c-.42,.11-.84,.16-1.26,.16Zm-8.06-7.02l4.67,4.35c1.08,1.37,2.8,1.96,4.42,1.55,3.04-.77,5.83-2.91,8.77-5.17,.21-.17,.43-.33,.65-.5l-18.51-.24Z" fill="#002346"></path>
  </g>
  <path d="M439.71,530.69c-.22,0-.42-.14-.48-.37-.07-.27,.08-.54,.35-.62l11.9-3.3c.27-.07,.54,.08,.62,.35,.07,.27-.08,.54-.35,.62l-11.9,3.3s-.09,.02-.13,.02Z" fill="#002346"></path>
  <path d="M447.41,542.09c-.21,0-.4-.13-.47-.34-.09-.26,.05-.54,.31-.63l11.51-3.93c.26-.09,.55,.05,.63,.31,.09,.26-.05,.54-.31,.63l-11.51,3.93c-.05,.02-.11,.03-.16,.03Z" fill="#002346"></path>
  <path d="M641.85,266.68c-13.92,0-26.23-2.72-36.84-8.17-23.59-12.11-29.9-33.83-29.96-34.05-.07-.27,.08-.54,.35-.62,.27-.07,.54,.08,.62,.35,.06,.21,6.27,21.53,29.47,33.44,22.87,11.73,53.78,10.64,91.89-3.25,.26-.09,.55,.04,.64,.3,.09,.26-.04,.55-.3,.64-20.78,7.57-39.45,11.36-55.87,11.36Z" fill="#002346"></path>
  <g>
    <path d="M680.89,312.12s-61.66,104.69-91.26,122.7l-92.84,39.66s12.42,39.13,17.83,59.74l152.5-54.89c8.82-3.18,16.04-9.7,20.1-18.16l44.17-92.2" fill="#4dff00"></path>
    <path d="M514.28,534.87l-.14-.53c-5.35-20.36-17.7-59.33-17.82-59.72l-.14-.43,.42-.18,92.84-39.66c29.09-17.71,90.41-121.45,91.03-122.49l.86,.51c-.62,1.05-62.06,105-91.43,122.87l-92.49,39.51c1.36,4.3,12.45,39.46,17.56,58.8l151.98-54.71c8.76-3.15,15.79-9.51,19.81-17.9l44.17-92.2,.9,.43-44.17,92.2c-4.13,8.63-11.37,15.17-20.38,18.41l-153.01,55.08Z" fill="#002346"></path>
  </g>
  <path d="M537.6,502.05c-.21,0-.41-.14-.48-.35l-12.5-39.17c-.08-.26,.06-.54,.32-.63,.26-.08,.54,.06,.63,.32l12.5,39.17c.08,.26-.06,.54-.32,.63-.05,.02-.1,.02-.15,.02Z" fill="#002346"></path>
  <path d="M500.62,343.21c-.06,0-.12,0-.17-.03-.26-.1-.39-.38-.3-.64l17.91-48.38c.1-.26,.38-.39,.64-.29,.26,.1,.39,.38,.3,.64l-17.91,48.38c-.07,.2-.27,.33-.47,.33Z" fill="#002346"></path>
  <g>
    <path d="M284.28,216.4l7.43,9.41c14.56-8.95,28.25-19.27,40.87-30.8l-7.19-9.58c-.65-.89-1.9-1.09-2.79-.44-.02,.01-.03,.02-.05,.03l-37.85,28.2c-.99,.72-1.21,2.1-.49,3.09,.02,.03,.05,.06,.07,.09Z" fill="#fff"></path>
    <path d="M291.59,226.47l-7.71-9.76h0l-.09-.11c-.42-.58-.59-1.3-.48-2.01,.11-.71,.5-1.34,1.09-1.77l37.84-28.2c1.17-.85,2.73-.6,3.54,.52l7.46,9.94-.33,.31c-12.62,11.53-26.39,21.91-40.95,30.86l-.38,.23Zm32.17-41.36c-.3,0-.61,.09-.88,.29l-37.89,28.23c-.38,.27-.62,.67-.69,1.12-.07,.45,.04,.9,.3,1.27l.06,.08,7.15,9.06c14.23-8.78,27.71-18.94,40.08-30.2l-6.92-9.22c-.3-.41-.76-.62-1.22-.62Z" fill="#002346"></path>
  </g>
  <path d="M310.17,402.06c-.13,0-.26-.05-.35-.15-.19-.2-.19-.51,0-.71l59.42-59.18c.2-.19,.51-.19,.71,0,.19,.2,.19,.51,0,.71l-59.42,59.18c-.1,.1-.23,.15-.35,.15Z" fill="#002346"></path>
  <path d="M130.67,515.54c-.12,0-.24-.04-.33-.13-.21-.18-.22-.5-.04-.71l21.84-24.3c.19-.21,.5-.22,.71-.04s.22,.5,.04,.71l-21.84,24.3c-.1,.11-.24,.17-.37,.17Z" fill="#002346"></path>
</svg>
